<?xml version="1.0" standalone="no"?>
<!DOCTYPE svg PUBLIC "-//W3C//DTD SVG 20010904//EN"
 "http://www.w3.org/TR/2001/REC-SVG-20010904/DTD/svg10.dtd">
<svg version="1.0" xmlns="http://www.w3.org/2000/svg"
 width="700.000000pt" height="700.000000pt" viewBox="0 0 700.000000 700.000000"
 preserveAspectRatio="xMidYMid meet">
<metadata>
Created by potrace 1.14, written by Peter Selinger 2001-2017
</metadata>
<g transform="translate(0.000000,700.000000) scale(0.100000,-0.100000)"
fill="#000000" stroke="none">
<path d="M1907 6254 c-57 -20 -83 -45 -224 -214 -158 -190 -340 -407 -400
-478 -153 -179 -172 -222 -141 -325 17 -56 128 -164 200 -194 70 -30 171 -11
223 42 11 11 79 90 150 175 71 85 134 160 140 166 5 6 28 33 50 59 22 27 103
123 179 214 144 172 175 222 176 281 0 71 -20 112 -86 176 -99 96 -183 127
-267 98z"/>
<path d="M3130 6260 c-77 -22 -104 -48 -330 -323 -8 -10 -22 -27 -30 -37 -8
-9 -33 -39 -55 -65 -22 -27 -54 -65 -71 -84 -17 -20 -91 -108 -164 -196 -74
-88 -180 -214 -235 -280 -55 -66 -138 -165 -185 -220 -46 -55 -102 -122 -126
-150 -23 -27 -86 -102 -139 -165 -54 -63 -106 -133 -116 -155 -24 -51 -24
-119 0 -170 22 -49 124 -141 188 -172 60 -28 135 -25 187 9 20 12 126 129 234
258 108 129 199 237 202 240 3 3 39 46 80 95 41 50 80 95 85 101 6 6 19 22 30
36 58 69 120 144 125 148 3 3 22 26 43 52 21 26 43 53 50 60 7 7 113 135 237
283 124 149 238 284 253 300 72 75 88 179 42 263 -27 47 -112 125 -171 155
-37 19 -100 27 -134 17z"/>
<path d="M4334 6260 c-50 -11 -99 -46 -146 -103 -50 -60 -70 -84 -95 -113 -10
-12 -36 -43 -58 -70 -22 -26 -207 -246 -410 -488 -575 -684 -535 -631 -535
-716 0 -86 26 -128 132 -213 88 -70 165 -83 252 -42 34 16 173 176 647 745 57
69 108 130 114 136 5 6 28 32 50 59 22 27 67 81 100 120 259 303 277 329 281
406 3 73 -30 132 -115 202 -90 74 -147 94 -217 77z"/>
<path d="M5515 6257 c-16 -5 -44 -20 -62 -33 -25 -19 -147 -158 -253 -288 -8
-10 -20 -23 -25 -30 -6 -6 -103 -121 -216 -256 -113 -135 -277 -330 -364 -435
-88 -104 -169 -201 -180 -214 -11 -13 -47 -56 -80 -95 -33 -39 -105 -125 -160
-191 -55 -66 -102 -122 -105 -125 -3 -3 -61 -72 -130 -155 -69 -82 -135 -161
-147 -175 -12 -14 -157 -187 -323 -385 -166 -198 -319 -380 -340 -405 -21 -25
-98 -117 -172 -205 -163 -195 -175 -209 -214 -254 -17 -20 -111 -133 -210
-251 -98 -118 -191 -228 -205 -245 -15 -16 -54 -64 -89 -105 -34 -41 -79 -95
-100 -120 -21 -25 -114 -135 -206 -245 -175 -208 -407 -485 -436 -520 -9 -11
-70 -83 -135 -161 -220 -262 -223 -266 -227 -333 -5 -77 18 -124 92 -192 81
-74 130 -98 199 -99 65 0 123 30 173 90 49 58 152 181 210 250 25 30 70 84
100 120 31 36 114 135 185 220 71 85 134 160 140 166 5 6 26 30 45 54 19 24
40 48 45 54 6 6 35 40 64 76 30 36 57 67 60 70 3 3 26 30 51 60 25 30 53 64
62 75 9 11 82 99 163 195 81 96 235 281 344 410 108 129 268 321 356 425 87
105 162 192 165 195 3 3 25 30 50 60 53 65 81 99 95 114 6 6 32 38 60 71 27
33 52 62 55 65 3 3 72 86 155 185 82 99 151 182 154 185 5 4 59 68 123 145 9
11 56 67 104 125 48 58 124 148 167 200 44 52 94 111 111 131 17 20 49 58 71
84 22 27 45 53 50 59 8 9 106 127 280 335 11 14 34 41 51 60 17 20 80 95 139
166 60 72 113 135 119 141 6 7 27 31 46 55 19 24 116 139 215 257 99 117 191
233 203 257 29 52 31 128 6 180 -19 41 -145 156 -189 173 -41 17 -104 21 -140
9z"/>
<path d="M4982 2769 c-33 -10 -98 -69 -161 -144 -71 -86 -110 -133 -212 -254
-122 -146 -902 -1076 -927 -1106 -9 -11 -38 -45 -63 -75 -78 -93 -97 -150 -76
-233 8 -32 27 -58 81 -111 82 -80 131 -105 201 -106 80 0 128 31 220 141 44
53 149 179 234 280 85 101 247 294 360 429 113 135 208 247 211 250 37 33 466
562 477 587 18 45 15 118 -8 164 -20 40 -126 141 -173 165 -39 20 -121 26
-164 13z"/>
<path d="M3565 2503 c-55 -14 -71 -31 -285 -288 -69 -82 -137 -163 -151 -180
-23 -26 -75 -88 -244 -290 -22 -26 -51 -62 -65 -78 -14 -17 -32 -38 -40 -47
-8 -8 -80 -94 -160 -190 -79 -96 -147 -177 -150 -180 -23 -21 -100 -121 -113
-145 -36 -71 -22 -172 31 -230 38 -42 111 -99 151 -120 30 -15 95 -21 141 -12
45 8 101 61 236 222 82 98 201 240 264 315 63 75 169 201 235 280 66 79 125
148 130 154 6 6 20 23 31 38 12 15 41 51 66 80 260 303 271 320 270 398 0 67
-26 118 -90 177 -93 87 -173 117 -257 96z"/>
<path d="M5523 1970 c-65 -15 -75 -26 -508 -544 -104 -125 -202 -242 -217
-259 -42 -48 -59 -92 -60 -150 -2 -67 27 -124 88 -174 25 -21 58 -48 72 -61
60 -51 175 -54 243 -6 21 14 66 60 101 103 34 42 68 82 75 89 7 7 29 34 50 60
21 26 40 49 43 52 3 3 50 59 105 125 56 66 149 177 207 246 58 69 114 141 124
160 27 53 24 135 -8 190 -24 41 -124 131 -175 158 -29 15 -99 21 -140 11z"/>
</g>
</svg>
